<mxfile host="app.diagrams.net" modified="2023-04-08T12:00:00.000Z" agent="5.0 (Windows NT 10.0; Win64; x64) AppleWebKit/537.36 (KHTML, like Gecko) Chrome/91.0.4472.124 Safari/537.36" etag="yourEtag" version="14.7.7" type="device">
  <diagram id="prtHgNgQTEPvFCAcTncT" name="CineFy Project Architecture">
    <mxGraphModel dx="1422" dy="762" grid="1" gridSize="10" guides="1" tooltips="1" connect="1" arrows="1" fold="1" page="1" pageScale="1" pageWidth="1169" pageHeight="827" math="0" shadow="0">
      <root>
        <mxCell id="0" />
        <mxCell id="1" parent="0" />
        
        <!-- Title -->
        <mxCell id="title" value="CineFy - Blockchain-based Ticket Booking System" style="text;html=1;strokeColor=none;fillColor=none;align=center;verticalAlign=middle;whiteSpace=wrap;rounded=0;fontSize=24;fontStyle=1" vertex="1" parent="1">
          <mxGeometry x="285" y="20" width="600" height="40" as="geometry" />
        </mxCell>
        
        <!-- System Architecture Section -->
        <mxCell id="archTitle" value="System Architecture" style="text;html=1;strokeColor=none;fillColor=none;align=center;verticalAlign=middle;whiteSpace=wrap;rounded=0;fontSize=18;fontStyle=1" vertex="1" parent="1">
          <mxGeometry x="285" y="70" width="600" height="30" as="geometry" />
        </mxCell>
        
        <!-- User -->
        <mxCell id="user" value="User" style="shape=umlActor;verticalLabelPosition=bottom;verticalAlign=top;html=1;outlineConnect=0;fillColor=#dae8fc;strokeColor=#6c8ebf;" vertex="1" parent="1">
          <mxGeometry x="100" y="220" width="30" height="60" as="geometry" />
        </mxCell>
        
        <!-- Frontend Component -->
        <mxCell id="frontend" value="Frontend (React.js)" style="rounded=1;whiteSpace=wrap;html=1;fillColor=#dae8fc;strokeColor=#6c8ebf;fontSize=14;" vertex="1" parent="1">
          <mxGeometry x="240" y="220" width="200" height="60" as="geometry" />
        </mxCell>
        
        <!-- Web3 Provider -->
        <mxCell id="web3" value="Web3 Provider (ethers.js)" style="rounded=1;whiteSpace=wrap;html=1;fillColor=#d5e8d4;strokeColor=#82b366;fontSize=14;" vertex="1" parent="1">
          <mxGeometry x="480" y="220" width="200" height="60" as="geometry" />
        </mxCell>
        
        <!-- MetaMask -->
        <mxCell id="metamask" value="MetaMask Wallet" style="rounded=1;whiteSpace=wrap;html=1;fillColor=#fff2cc;strokeColor=#d6b656;fontSize=14;" vertex="1" parent="1">
          <mxGeometry x="480" y="140" width="200" height="40" as="geometry" />
        </mxCell>
        
        <!-- Smart Contract -->
        <mxCell id="smartContract" value="Smart Contract (Solidity)" style="rounded=1;whiteSpace=wrap;html=1;fillColor=#ffe6cc;strokeColor=#d79b00;fontSize=14;" vertex="1" parent="1">
          <mxGeometry x="720" y="220" width="200" height="60" as="geometry" />
        </mxCell>
        
        <!-- Blockchain -->
        <mxCell id="blockchain" value="Ethereum Blockchain" style="rounded=1;whiteSpace=wrap;html=1;fillColor=#e1d5e7;strokeColor=#9673a6;fontSize=14;" vertex="1" parent="1">
          <mxGeometry x="720" y="320" width="200" height="60" as="geometry" />
        </mxCell>
        
        <!-- Connections -->
        <mxCell id="userToFrontend" value="" style="endArrow=classic;startArrow=classic;html=1;exitX=1;exitY=0.5;exitDx=0;exitDy=0;entryX=0;entryY=0.5;entryDx=0;entryDy=0;" edge="1" parent="1" source="user" target="frontend">
          <mxGeometry width="50" height="50" relative="1" as="geometry">
            <mxPoint x="560" y="450" as="sourcePoint" />
            <mxPoint x="610" y="400" as="targetPoint" />
          </mxGeometry>
        </mxCell>
        
        <mxCell id="frontendToWeb3" value="" style="endArrow=classic;startArrow=classic;html=1;exitX=1;exitY=0.5;exitDx=0;exitDy=0;entryX=0;entryY=0.5;entryDx=0;entryDy=0;" edge="1" parent="1" source="frontend" target="web3">
          <mxGeometry width="50" height="50" relative="1" as="geometry">
            <mxPoint x="560" y="450" as="sourcePoint" />
            <mxPoint x="610" y="400" as="targetPoint" />
          </mxGeometry>
        </mxCell>
        
        <mxCell id="web3ToSmartContract" value="" style="endArrow=classic;startArrow=classic;html=1;exitX=1;exitY=0.5;exitDx=0;exitDy=0;entryX=0;entryY=0.5;entryDx=0;entryDy=0;" edge="1" parent="1" source="web3" target="smartContract">
          <mxGeometry width="50" height="50" relative="1" as="geometry">
            <mxPoint x="560" y="450" as="sourcePoint" />
            <mxPoint x="610" y="400" as="targetPoint" />
          </mxGeometry>
        </mxCell>
        
        <mxCell id="smartContractToBlockchain" value="" style="endArrow=classic;startArrow=classic;html=1;exitX=0.5;exitY=1;exitDx=0;exitDy=0;entryX=0.5;entryY=0;entryDx=0;entryDy=0;" edge="1" parent="1" source="smartContract" target="blockchain">
          <mxGeometry width="50" height="50" relative="1" as="geometry">
            <mxPoint x="560" y="450" as="sourcePoint" />
            <mxPoint x="610" y="400" as="targetPoint" />
          </mxGeometry>
        </mxCell>
        
        <mxCell id="web3ToMetamask" value="" style="endArrow=classic;startArrow=classic;html=1;exitX=0.5;exitY=0;exitDx=0;exitDy=0;entryX=0.5;entryY=1;entryDx=0;entryDy=0;" edge="1" parent="1" source="web3" target="metamask">
          <mxGeometry width="50" height="50" relative="1" as="geometry">
            <mxPoint x="560" y="450" as="sourcePoint" />
            <mxPoint x="610" y="400" as="targetPoint" />
          </mxGeometry>
        </mxCell>
        
        <!-- User Flow Section -->
        <mxCell id="userFlowTitle" value="User Workflow" style="text;html=1;strokeColor=none;fillColor=none;align=center;verticalAlign=middle;whiteSpace=wrap;rounded=0;fontSize=18;fontStyle=1" vertex="1" parent="1">
          <mxGeometry x="285" y="420" width="600" height="30" as="geometry" />
        </mxCell>
        
        <!-- User Flow -->
        <mxCell id="step1" value="1. Connect Wallet" style="rounded=1;whiteSpace=wrap;html=1;fillColor=#f5f5f5;strokeColor=#666666;fontColor=#333333;fontSize=14;" vertex="1" parent="1">
          <mxGeometry x="80" y="480" width="150" height="40" as="geometry" />
        </mxCell>
        
        <mxCell id="step2" value="2. Browse Movies" style="rounded=1;whiteSpace=wrap;html=1;fillColor=#f5f5f5;strokeColor=#666666;fontColor=#333333;fontSize=14;" vertex="1" parent="1">
          <mxGeometry x="280" y="480" width="150" height="40" as="geometry" />
        </mxCell>
        
        <mxCell id="step3" value="3. Select Movie" style="rounded=1;whiteSpace=wrap;html=1;fillColor=#f5f5f5;strokeColor=#666666;fontColor=#333333;fontSize=14;" vertex="1" parent="1">
          <mxGeometry x="480" y="480" width="150" height="40" as="geometry" />
        </mxCell>
        
        <mxCell id="step4" value="4. Choose Seats" style="rounded=1;whiteSpace=wrap;html=1;fillColor=#f5f5f5;strokeColor=#666666;fontColor=#333333;fontSize=14;" vertex="1" parent="1">
          <mxGeometry x="680" y="480" width="150" height="40" as="geometry" />
        </mxCell>
        
        <mxCell id="step5" value="5. Confirm Purchase" style="rounded=1;whiteSpace=wrap;html=1;fillColor=#f5f5f5;strokeColor=#666666;fontColor=#333333;fontSize=14;" vertex="1" parent="1">
          <mxGeometry x="880" y="480" width="150" height="40" as="geometry" />
        </mxCell>
        
        <mxCell id="step6" value="6. Sign Transaction" style="rounded=1;whiteSpace=wrap;html=1;fillColor=#fff2cc;strokeColor=#d6b656;fontSize=14;" vertex="1" parent="1">
          <mxGeometry x="880" y="560" width="150" height="40" as="geometry" />
        </mxCell>
        
        <mxCell id="step7" value="7. Smart Contract Execution" style="rounded=1;whiteSpace=wrap;html=1;fillColor=#ffe6cc;strokeColor=#d79b00;fontSize=14;" vertex="1" parent="1">
          <mxGeometry x="680" y="560" width="150" height="40" as="geometry" />
        </mxCell>
        
        <mxCell id="step8" value="8. NFT Ticket Minted" style="rounded=1;whiteSpace=wrap;html=1;fillColor=#e1d5e7;strokeColor=#9673a6;fontSize=14;" vertex="1" parent="1">
          <mxGeometry x="480" y="560" width="150" height="40" as="geometry" />
        </mxCell>
        
        <mxCell id="step9" value="9. View Ticket in Wallet" style="rounded=1;whiteSpace=wrap;html=1;fillColor=#dae8fc;strokeColor=#6c8ebf;fontSize=14;" vertex="1" parent="1">
          <mxGeometry x="280" y="560" width="150" height="40" as="geometry" />
        </mxCell>
        
        <!-- Flow Arrows -->
        <mxCell id="flow1to2" value="" style="endArrow=classic;html=1;exitX=1;exitY=0.5;exitDx=0;exitDy=0;entryX=0;entryY=0.5;entryDx=0;entryDy=0;" edge="1" parent="1" source="step1" target="step2">
          <mxGeometry width="50" height="50" relative="1" as="geometry">
            <mxPoint x="560" y="450" as="sourcePoint" />
            <mxPoint x="610" y="400" as="targetPoint" />
          </mxGeometry>
        </mxCell>
        
        <mxCell id="flow2to3" value="" style="endArrow=classic;html=1;exitX=1;exitY=0.5;exitDx=0;exitDy=0;entryX=0;entryY=0.5;entryDx=0;entryDy=0;" edge="1" parent="1" source="step2" target="step3">
          <mxGeometry width="50" height="50" relative="1" as="geometry">
            <mxPoint x="560" y="450" as="sourcePoint" />
            <mxPoint x="610" y="400" as="targetPoint" />
          </mxGeometry>
        </mxCell>
        
        <mxCell id="flow3to4" value="" style="endArrow=classic;html=1;exitX=1;exitY=0.5;exitDx=0;exitDy=0;entryX=0;entryY=0.5;entryDx=0;entryDy=0;" edge="1" parent="1" source="step3" target="step4">
          <mxGeometry width="50" height="50" relative="1" as="geometry">
            <mxPoint x="560" y="450" as="sourcePoint" />
            <mxPoint x="610" y="400" as="targetPoint" />
          </mxGeometry>
        </mxCell>
        
        <mxCell id="flow4to5" value="" style="endArrow=classic;html=1;exitX=1;exitY=0.5;exitDx=0;exitDy=0;entryX=0;entryY=0.5;entryDx=0;entryDy=0;" edge="1" parent="1" source="step4" target="step5">
          <mxGeometry width="50" height="50" relative="1" as="geometry">
            <mxPoint x="560" y="450" as="sourcePoint" />
            <mxPoint x="610" y="400" as="targetPoint" />
          </mxGeometry>
        </mxCell>
        
        <mxCell id="flow5to6" value="" style="endArrow=classic;html=1;exitX=0.5;exitY=1;exitDx=0;exitDy=0;entryX=0.5;entryY=0;entryDx=0;entryDy=0;" edge="1" parent="1" source="step5" target="step6">
          <mxGeometry width="50" height="50" relative="1" as="geometry">
            <mxPoint x="560" y="450" as="sourcePoint" />
            <mxPoint x="610" y="400" as="targetPoint" />
          </mxGeometry>
        </mxCell>
        
        <mxCell id="flow6to7" value="" style="endArrow=classic;html=1;exitX=0;exitY=0.5;exitDx=0;exitDy=0;entryX=1;entryY=0.5;entryDx=0;entryDy=0;" edge="1" parent="1" source="step6" target="step7">
          <mxGeometry width="50" height="50" relative="1" as="geometry">
            <mxPoint x="560" y="450" as="sourcePoint" />
            <mxPoint x="610" y="400" as="targetPoint" />
          </mxGeometry>
        </mxCell>
        
        <mxCell id="flow7to8" value="" style="endArrow=classic;html=1;exitX=0;exitY=0.5;exitDx=0;exitDy=0;entryX=1;entryY=0.5;entryDx=0;entryDy=0;" edge="1" parent="1" source="step7" target="step8">
          <mxGeometry width="50" height="50" relative="1" as="geometry">
            <mxPoint x="560" y="450" as="sourcePoint" />
            <mxPoint x="610" y="400" as="targetPoint" />
          </mxGeometry>
        </mxCell>
        
        <mxCell id="flow8to9" value="" style="endArrow=classic;html=1;exitX=0;exitY=0.5;exitDx=0;exitDy=0;entryX=1;entryY=0.5;entryDx=0;entryDy=0;" edge="1" parent="1" source="step8" target="step9">
          <mxGeometry width="50" height="50" relative="1" as="geometry">
            <mxPoint x="560" y="450" as="sourcePoint" />
            <mxPoint x="610" y="400" as="targetPoint" />
          </mxGeometry>
        </mxCell>
        
        <!-- Data Flow Section -->
        <mxCell id="dataFlowTitle" value="Smart Contract Functionality" style="text;html=1;strokeColor=none;fillColor=none;align=center;verticalAlign=middle;whiteSpace=wrap;rounded=0;fontSize=18;fontStyle=1" vertex="1" parent="1">
          <mxGeometry x="285" y="640" width="600" height="30" as="geometry" />
        </mxCell>
        
        <!-- Smart Contract Functions -->
        <mxCell id="function1" value="List Movies" style="rounded=1;whiteSpace=wrap;html=1;fillColor=#ffe6cc;strokeColor=#d79b00;fontSize=14;" vertex="1" parent="1">
          <mxGeometry x="120" y="690" width="150" height="40" as="geometry" />
        </mxCell>
        
        <mxCell id="function2" value="Add Movie" style="rounded=1;whiteSpace=wrap;html=1;fillColor=#ffe6cc;strokeColor=#d79b00;fontSize=14;" vertex="1" parent="1">
          <mxGeometry x="320" y="690" width="150" height="40" as="geometry" />
        </mxCell>
        
        <mxCell id="function3" value="Book Ticket" style="rounded=1;whiteSpace=wrap;html=1;fillColor=#ffe6cc;strokeColor=#d79b00;fontSize=14;" vertex="1" parent="1">
          <mxGeometry x="520" y="690" width="150" height="40" as="geometry" />
        </mxCell>
        
        <mxCell id="function4" value="View Tickets" style="rounded=1;whiteSpace=wrap;html=1;fillColor=#ffe6cc;strokeColor=#d79b00;fontSize=14;" vertex="1" parent="1">
          <mxGeometry x="720" y="690" width="150" height="40" as="geometry" />
        </mxCell>
        
        <mxCell id="function5" value="Verify Ticket" style="rounded=1;whiteSpace=wrap;html=1;fillColor=#ffe6cc;strokeColor=#d79b00;fontSize=14;" vertex="1" parent="1">
          <mxGeometry x="920" y="690" width="150" height="40" as="geometry" />
        </mxCell>
        
        <mxCell id="contractState" value="NFT Ticket Data Storage (MovieID, SeatNo, Time, Date, Owner)" style="shape=cylinder3;whiteSpace=wrap;html=1;boundedLbl=1;backgroundOutline=1;size=15;fillColor=#e1d5e7;strokeColor=#9673a6;fontSize=14;" vertex="1" parent="1">
          <mxGeometry x="420" y="760" width="330" height="80" as="geometry" />
        </mxCell>
        
        <mxCell id="stateConnection1" value="" style="endArrow=classic;html=1;exitX=0.5;exitY=1;exitDx=0;exitDy=0;entryX=0;entryY=0.5;entryDx=0;entryDy=0;entryPerimeter=0;edgeStyle=orthogonalEdgeStyle;" edge="1" parent="1" source="function1" target="contractState">
          <mxGeometry width="50" height="50" relative="1" as="geometry">
            <mxPoint x="560" y="680" as="sourcePoint" />
            <mxPoint x="610" y="630" as="targetPoint" />
            <Array as="points">
              <mxPoint x="195" y="800" />
            </Array>
          </mxGeometry>
        </mxCell>
        
        <mxCell id="stateConnection2" value="" style="endArrow=classic;html=1;exitX=0.5;exitY=1;exitDx=0;exitDy=0;entryX=0.194;entryY=0;entryDx=0;entryDy=0;entryPerimeter=0;edgeStyle=orthogonalEdgeStyle;" edge="1" parent="1" source="function2" target="contractState">
          <mxGeometry width="50" height="50" relative="1" as="geometry">
            <mxPoint x="560" y="680" as="sourcePoint" />
            <mxPoint x="610" y="630" as="targetPoint" />
          </mxGeometry>
        </mxCell>
        
        <mxCell id="stateConnection3" value="" style="endArrow=classic;html=1;exitX=0.5;exitY=1;exitDx=0;exitDy=0;entryX=0.5;entryY=0;entryDx=0;entryDy=0;entryPerimeter=0;edgeStyle=orthogonalEdgeStyle;" edge="1" parent="1" source="function3" target="contractState">
          <mxGeometry width="50" height="50" relative="1" as="geometry">
            <mxPoint x="560" y="680" as="sourcePoint" />
            <mxPoint x="610" y="630" as="targetPoint" />
          </mxGeometry>
        </mxCell>
        
        <mxCell id="stateConnection4" value="" style="endArrow=classic;html=1;exitX=0.5;exitY=1;exitDx=0;exitDy=0;entryX=0.806;entryY=0;entryDx=0;entryDy=0;entryPerimeter=0;edgeStyle=orthogonalEdgeStyle;" edge="1" parent="1" source="function4" target="contractState">
          <mxGeometry width="50" height="50" relative="1" as="geometry">
            <mxPoint x="560" y="680" as="sourcePoint" />
            <mxPoint x="610" y="630" as="targetPoint" />
          </mxGeometry>
        </mxCell>
        
        <mxCell id="stateConnection5" value="" style="endArrow=classic;html=1;exitX=0.5;exitY=1;exitDx=0;exitDy=0;entryX=1;entryY=0.5;entryDx=0;entryDy=0;entryPerimeter=0;edgeStyle=orthogonalEdgeStyle;" edge="1" parent="1" source="function5" target="contractState">
          <mxGeometry width="50" height="50" relative="1" as="geometry">
            <mxPoint x="560" y="680" as="sourcePoint" />
            <mxPoint x="610" y="630" as="targetPoint" />
            <Array as="points">
              <mxPoint x="995" y="800" />
            </Array>
          </mxGeometry>
        </mxCell>
      </root>
    </mxGraphModel>
  </diagram>
</mxfile> 